HIERARCHY
ROOT joint_Root
{
	OFFSET 0.0 0.0 0.0
	CHANNELS 6 Xposition Yposition Zposition Zrotation Xrotation Yrotation 
	JOINT Hips
	{
		OFFSET 4.5925 91.4895 -427.239
		CHANNELS 6 Xposition Yposition Zposition Zrotation Xrotation Yrotation 
		JOINT Spine
		{
			OFFSET 15.7357 0.0 0.0
			CHANNELS 6 Xposition Yposition Zposition Zrotation Xrotation Yrotation 
			JOINT Chest
			{
				OFFSET 8.98455 -0.406207 0.0
				CHANNELS 6 Xposition Yposition Zposition Zrotation Xrotation Yrotation 
				JOINT Neck
				{
					OFFSET 16.3773 0.0 0.0
					CHANNELS 6 Xposition Yposition Zposition Zrotation Xrotation Yrotation 
					JOINT Head
					{
						OFFSET 6.45672 0.0 0.0
						CHANNELS 6 Xposition Yposition Zposition Zrotation Xrotation Yrotation 
						End Site
						{
							OFFSET 0.0 0.0 0.0
						}
					}
				}
				JOINT Shoulder_L
				{
					OFFSET 12.9942 -0.242716 4.98039
					CHANNELS 6 Xposition Yposition Zposition Zrotation Xrotation Yrotation 
					JOINT UpperArm_L
					{
						OFFSET 5.34809 0.0 0.0
						CHANNELS 6 Xposition Yposition Zposition Zrotation Xrotation Yrotation 
						JOINT LowerArm_L
						{
							OFFSET 24.3286 1.87007e-05 0.0
							CHANNELS 6 Xposition Yposition Zposition Zrotation Xrotation Yrotation 
							JOINT Hand_L
							{
								OFFSET 22.2916 0.0 0.0
								CHANNELS 6 Xposition Yposition Zposition Zrotation Xrotation Yrotation 
								End Site
								{
									OFFSET 0.0 0.0 0.0
								}
							}
						}
					}
				}
				JOINT Shoulder_R
				{
					OFFSET 12.9945 -0.242716 -4.98039
					CHANNELS 6 Xposition Yposition Zposition Zrotation Xrotation Yrotation 
					JOINT UpperArm_R
					{
						OFFSET -5.34813 0.0 0.0
						CHANNELS 6 Xposition Yposition Zposition Zrotation Xrotation Yrotation 
						JOINT LowerArm_R
						{
							OFFSET -24.3289 0.000322201 0.0
							CHANNELS 6 Xposition Yposition Zposition Zrotation Xrotation Yrotation 
							JOINT Hand_R
							{
								OFFSET -22.2915 -0.000108084 0.0
								CHANNELS 6 Xposition Yposition Zposition Zrotation Xrotation Yrotation 
								End Site
								{
									OFFSET 0.0 0.0 0.0
								}
							}
						}
					}
				}
			}
		}
		JOINT UpperLeg_L
		{
			OFFSET -2.19248 -6.46944 0.0
			CHANNELS 6 Xposition Yposition Zposition Zrotation Xrotation Yrotation 
			JOINT LowerLeg_L
			{
				OFFSET 39.0811 0.0 -1.23785e-05
				CHANNELS 6 Xposition Yposition Zposition Zrotation Xrotation Yrotation 
				JOINT Foot_L
				{
					OFFSET 40.9854 0.0 -1.26872e-05
					CHANNELS 6 Xposition Yposition Zposition Zrotation Xrotation Yrotation 
					JOINT Toes_L
					{
						OFFSET 11.7543 0.0 0.0
						CHANNELS 6 Xposition Yposition Zposition Zrotation Xrotation Yrotation 
						End Site
						{
							OFFSET 0.0 0.0 0.0
						}
					}
				}
			}
		}
		JOINT UpperLeg_R
		{
			OFFSET -2.19251 6.46944 0.0
			CHANNELS 6 Xposition Yposition Zposition Zrotation Xrotation Yrotation 
			JOINT LowerLeg_R
			{
				OFFSET -39.0811 -0.00228153 -0.0401928
				CHANNELS 6 Xposition Yposition Zposition Zrotation Xrotation Yrotation 
				JOINT Foot_R
				{
					OFFSET -40.9854 0.0 0.0
					CHANNELS 6 Xposition Yposition Zposition Zrotation Xrotation Yrotation 
					JOINT Toes_R
					{
						OFFSET -11.7543 0.0 0.0
						CHANNELS 6 Xposition Yposition Zposition Zrotation Xrotation Yrotation 
						End Site
						{
							OFFSET 0.0 0.0 0.0
						}
					}
				}
			}
		}
	}
}
MOTION
Frames:	4
Frame Time:	0.0333333
0.000000 0.000000 0.000000 0.000000 0.000000 -0.000000 -8.906350 90.445600 0.417656 90.096900 0.687042 9.074440 15.735700 0.000005 -0.000001 85.724100 81.467200 -84.828700 8.984550 -0.406207 -0.000000 9.264140 -1.253700 1.890980 16.377300 -0.000001 -0.000001 3.279720 -5.373880 2.457070 6.456720 -0.000001 -0.000000 -2.106350 -5.002490 3.279180 12.994200 -0.242716 4.980390 -91.376300 5.692490 -76.383700 5.348090 -0.000007 -0.000001 -60.699800 41.419000 -22.458700 24.328600 0.000019 0.000005 8.735880 21.633500 -22.626500 22.291600 -0.000001 0.000005 6.472000 5.286000 0.461398 12.994500 -0.242716 -4.980390 88.549100 11.195000 -82.567400 -5.348130 -0.000001 -0.000004 -59.280800 30.700500 -15.248300 -24.328900 0.000322 -0.000009 1.029320 2.856320 -19.845800 -22.291500 -0.000108 -0.000004 12.572200 5.376700 -2.194940 -2.192480 -6.469440 -0.000000 -169.127000 -11.237300 -0.228130 39.081100 -0.000007 -0.000012 -0.268408 0.493204 28.556100 40.985400 -0.000006 -0.000013 -5.210610 9.604930 -67.846200 11.754300 -0.000000 0.000003 -0.000156 -0.001498 -16.634400 -2.192510 6.469440 -0.000001 178.268000 27.327200 -177.717000 -39.081100 -0.002282 -0.040193 -0.167205 0.303914 29.294500 -40.985400 0.000008 0.000006 9.260280 12.309500 -73.888900 -11.754300 -0.000006 -0.000006 -0.001305 -0.019650 -17.372200
0.000000 0.000000 0.000000 0.000000 0.000000 -0.000000 -8.913290 90.462700 0.194386 90.070900 0.730978 9.118560 15.735700 0.000005 -0.000001 85.586000 81.442900 -84.691400 8.984550 -0.406207 -0.000000 9.309980 -1.297780 1.893470 16.377300 -0.000001 -0.000001 3.775510 -5.380180 2.440630 6.456720 -0.000001 -0.000000 -1.498230 -4.873010 3.126210 12.994200 -0.242716 4.980390 -91.358600 5.599940 -76.339300 5.348090 -0.000007 -0.000001 -59.740800 40.511500 -23.367900 24.328600 0.000019 0.000005 9.309790 22.807600 -22.923300 22.291600 -0.000001 0.000005 5.905460 5.289190 0.372995 12.994500 -0.242716 -4.980390 88.513900 11.037600 -82.282900 -5.348130 -0.000001 -0.000004 -58.336100 29.872100 -16.419000 -24.328900 0.000322 -0.000009 1.059790 2.846470 -20.448900 -22.291500 -0.000108 -0.000004 12.398100 5.374300 -2.119810 -2.192480 -6.469440 -0.000000 -169.157000 -11.091000 -0.389052 39.081100 -0.000007 -0.000012 -0.269198 0.494112 28.582600 40.985400 -0.000006 -0.000013 -5.226930 9.499980 -67.697300 11.754300 -0.000000 0.000003 -0.000149 -0.001444 -16.632500 -2.192510 6.469440 -0.000001 178.343000 27.404400 -177.849000 -39.081100 -0.002282 -0.040193 -0.161981 0.294455 29.306700 -40.985400 0.000008 0.000006 9.310070 12.337600 -73.754300 -11.754300 -0.000006 -0.000006 -0.001337 -0.020081 -17.389700
0.000000 0.000000 0.000000 0.000000 0.000000 -0.000000 -8.929650 90.477400 -0.075330 89.994800 0.840133 9.135990 15.735700 0.000005 -0.000001 85.282800 81.440100 -84.382200 8.984550 -0.406207 -0.000000 9.309400 -1.387940 1.912860 16.377300 -0.000001 -0.000001 4.363050 -5.387790 2.395880 6.456720 -0.000001 -0.000000 -0.666360 -4.825460 2.922100 12.994200 -0.242716 4.980390 -91.360800 5.574890 -76.259800 5.348090 -0.000007 -0.000001 -57.827800 39.007200 -25.114800 24.328600 0.000019 0.000005 10.220600 24.499000 -23.499100 22.291600 -0.000001 0.000005 5.161180 5.297550 0.140493 12.994500 -0.242716 -4.980390 88.503300 10.762100 -82.034800 -5.348130 -0.000001 -0.000004 -57.096400 28.621200 -18.069400 -24.328900 0.000322 -0.000009 1.265270 3.225930 -21.445400 -22.291500 -0.000108 -0.000004 11.825900 5.370900 -2.014240 -2.192480 -6.469440 -0.000000 -169.171000 -10.863200 -0.654063 39.081100 -0.000007 -0.000012 -0.262886 0.480646 28.676600 40.985400 -0.000006 -0.000013 -5.248420 9.350500 -67.553600 11.754300 -0.000000 0.000003 -0.000149 -0.001441 -16.632300 -2.192510 6.469440 -0.000001 178.514000 27.524400 -178.060000 -39.081100 -0.002282 -0.040193 -0.156633 0.284774 29.319800 -40.985400 0.000008 0.000006 9.360620 12.306800 -73.580200 -11.754300 -0.000006 -0.000006 -0.001258 -0.019001 -17.345800
0.000000 0.000000 0.000000 0.000000 0.000000 -0.000000 -8.959610 90.497400 -0.366554 89.945100 0.992481 9.235370 15.735700 0.000005 -0.000001 85.046800 81.435500 -84.150500 8.984550 -0.406207 -0.000000 9.313300 -1.458630 1.909980 16.377300 -0.000001 -0.000001 5.206600 -5.414940 2.337570 6.456720 -0.000001 -0.000000 0.299977 -4.839590 2.682520 12.994200 -0.242716 4.980390 -91.361800 5.555910 -76.204800 5.348090 -0.000007 -0.000001 -55.151000 36.652900 -27.872500 24.328600 0.000019 0.000005 10.804300 25.662000 -23.781600 22.291600 -0.000001 0.000005 5.061860 5.296890 0.159205 12.994500 -0.242716 -4.980390 88.494600 10.419200 -81.732100 -5.348130 -0.000001 -0.000004 -55.170500 27.255400 -20.487100 -24.328900 0.000322 -0.000009 1.353390 3.246050 -22.663300 -22.291500 -0.000108 -0.000004 11.528500 5.372690 -2.070150 -2.192480 -6.469440 -0.000000 -169.169000 -10.657700 -0.848490 39.081100 -0.000007 -0.000012 -0.260803 0.476151 28.711400 40.985400 -0.000006 -0.000013 -5.261380 9.318210 -67.335600 11.754300 -0.000000 0.000003 -0.000132 -0.001306 -16.627400 -2.192510 6.469440 -0.000001 178.613000 27.627100 -178.170000 -39.081100 -0.002282 -0.040193 -0.157943 0.287158 29.315500 -40.985400 0.000008 0.000006 9.414440 12.289700 -73.396000 -11.754300 -0.000006 -0.000006 -0.001457 -0.021701 -17.455500
